<?xml version="1.0" encoding="UTF-8" standalone="no"?>
<svg width="200px" height="50px" viewBox="0 0 200 50" version="1.1" xmlns="http://www.w3.org/2000/svg" xmlns:xlink="http://www.w3.org/1999/xlink">
  <g id="car-rental-logo" stroke="none" stroke-width="1" fill="none" fill-rule="evenodd">
    <path d="M30,10 C16.745166,10 6,20.745166 6,34 C6,47.254834 16.745166,58 30,58 C43.254834,58 54,47.254834 54,34 C54,20.745166 43.254834,10 30,10 Z M30,13 C41.5979797,13 51,22.4020203 51,34 C51,45.5979797 41.5979797,55 30,55 C18.4020203,55 9,45.5979797 9,34 C9,22.4020203 18.4020203,13 30,13 Z" id="circle" fill="#3498DB"></path>
    <path d="M40,34 L46,34 C47.1045695,34 48,33.1045695 48,32 C48,30.8954305 47.1045695,30 46,30 L40,30 L40,34 Z" id="handle" fill="#3498DB"></path>
    <path d="M18,32 L42,32 L42,35 L18,35 L18,32 Z M14,30 L14.0029297,30 C16.2110133,30 18,31.7889867 18,33.9970703 L18,34 C18,36.209139 16.209139,38 14,38 C11.790861,38 10,36.209139 10,34 C10,31.790861 11.790861,30 14,30 Z M46,30 L46.0029297,30 C48.2110133,30 50,31.7889867 50,33.9970703 L50,34 C50,36.209139 48.209139,38 46,38 C43.790861,38 42,36.209139 42,34 C42,31.790861 43.790861,30 46,30 Z" id="car" fill="#3498DB"></path>
    <text id="CAR-RENTAL" font-family="Arial-BoldMT, Arial" font-size="18" font-weight="bold" fill="#333333">
      <tspan x="60" y="34">CAR RENTAL</tspan>
    </text>
  </g>
</svg>