<?xml version="1.0" encoding="UTF-8" standalone="no"?>
<svg width="220px" height="60px" viewBox="0 0 220 60" version="1.1" xmlns="http://www.w3.org/2000/svg" xmlns:xlink="http://www.w3.org/1999/xlink">
  <g stroke="none" stroke-width="1" fill="none" fill-rule="evenodd">
    <!-- Car Body -->
    <path d="M38,20 L48,20 C52,20 54,22 56,26 L60,34 C62,38 60,40 56,40 L20,40 C16,40 14,38 16,34 L20,26 C22,22 24,20 28,20 L38,20 Z" fill="#3a56e4"/>
    <!-- Wheels -->
    <circle cx="28" cy="40" r="6" fill="#333333"/>
    <circle cx="28" cy="40" r="3" fill="#666666"/>
    <circle cx="50" cy="40" r="6" fill="#333333"/>
    <circle cx="50" cy="40" r="3" fill="#666666"/>
    <!-- Window -->
    <path d="M39,20 L48,20 C50,20 52,22 54,24 L48,24 C46,24 44,22 44,24 L39,24 L39,20 Z" fill="#a5c8ff"/>
    <!-- Text -->
    <text font-family="Arial-BoldMT, Arial" font-size="22" font-weight="bold" fill="#333333">
      <tspan x="70" y="36">CAR RENTAL</tspan>
    </text>
    <!-- Premium Line -->
    <text font-family="Arial-ItalicMT, Arial" font-size="10" font-style="italic" fill="#3a56e4">
      <tspan x="70" y="48">Premium Service</tspan>
    </text>
  </g>
</svg>
