<?xml version="1.0" encoding="UTF-8"?>
<svg width="512px" height="512px" viewBox="0 0 512 512" version="1.1" xmlns="http://www.w3.org/2000/svg">
    <g id="Page-1" stroke="none" stroke-width="1" fill="none" fill-rule="evenodd">
        <g id="discover-card" transform="translate(0.000000, 150.000000)" fill-rule="nonzero">
            <rect id="Rectangle" fill="#FFFFFF" x="0" y="0" width="512" height="206.222222"></rect>
            <path d="M511.768889,122.311111 L511.768889,206.222222 L0,206.222222 L0,122.311111 C71.1111111,134.826667 145.066667,103.537778 231.822222,103.537778 C318.577778,103.537778 440.888889,134.826667 511.768889,122.311111 Z" id="Path" fill="#F48120"></path>
            <path d="M92.9955556,79.6444444 C85,82.4888889 78.4444444,88.3555556 75.3688889,96.0977778 L75.3688889,62.6577778 L64.28,62.6577778 L64.28,130.977778 L75.3688889,130.977778 L75.3688889,118.231111 C78.6755556,126.204444 85.2311111,132.071111 93.4577778,132.071111 C110.88,132.071111 122.88,116.04 122.88,98.7111111 C122.88,81.6133333 110.648889,65.5822222 92.9955556,79.6444444 Z M90.6133333,121.675556 C81.2888889,121.675556 75.1377778,112.811111 75.1377778,98.7111111 C75.1377778,84.6111111 80.8266667,75.7466667 90.6133333,75.7466667 C100.4,75.7466667 106.551111,84.8422222 106.551111,98.9422222 C106.551111,113.042222 100.631111,121.675556 90.6133333,121.675556 Z" id="Shape" fill="#000000"></path>
            <path d="M146.871111,74.8844444 L146.871111,106.151111 C146.871111,117.133333 153.2,121.675556 164.98,121.675556 C169.08,121.675556 173.391111,120.808889 178.48,118.231111 L178.48,107.48 C174.631111,110.288889 170.551111,111.84 166.924444,111.84 C161.371111,111.84 158.08,108.462222 158.08,102.08 L158.08,74.8844444 L178.48,74.8844444 L178.48,65.3511111 L158.08,65.3511111 L158.08,47.3177778 L146.871111,47.3177778 L146.871111,65.3511111 L137.775556,65.3511111 L137.775556,74.8844444 L146.871111,74.8844444 Z" id="Path" fill="#000000"></path>
            <path d="M333.897778,98.7111111 C333.897778,81.6133333 345.571111,73.6844444 355.951111,73.6844444 C361.275556,73.6844444 365.124444,74.8844444 370.968889,78.32 L370.968889,65.8133333 C366.04,63.9822222 361.275556,62.8844444 356.28,62.8844444 C337.275556,62.8844444 317.337778,78.0888889 317.337778,99.3466667 C317.337778,120.604444 336.111111,130.977778 354.422222,130.977778 C359.675556,130.977778 364.48,130.111111 370.968889,127.84 L370.968889,115.404444 C365.124444,118.84 360.68,121.675556 355.124444,121.675556 C345.804444,121.675556 333.897778,115.635556 333.897778,98.7111111 Z" id="Path" fill="#000000"></path>
            <path d="M409.928889,74.4222222 L420.324444,104.093333 L430.026667,74.4222222 L447.008889,74.4222222 L428.037778,130.977778 L412.508889,130.977778 L393.075556,74.4222222 L409.928889,74.4222222 Z" id="Path" fill="#000000"></path>
            <path d="M284.333333,74.4222222 L294.728889,104.093333 L304.44,74.4222222 L321.422222,74.4222222 L302.44,130.977778 L286.911111,130.977778 L267.484444,74.4222222 L284.333333,74.4222222 Z" id="Path" fill="#000000"></path>
            <path d="M129.724444,104.324444 C129.724444,120.604444 142.324444,130.977778 160.866667,130.977778 C168.146667,130.977778 174.062222,129.573333 180.84,125.902222 L180.84,114.08 C174.524444,118.84 168.377778,121.444444 161.56,121.444444 C152.235556,121.444444 146.058889,116.902222 145.611111,111.377778 L180.84,111.377778 L180.84,104.324444 C180.84,86.6733333 171.751111,74.8844444 157.524444,74.8844444 C143.297778,74.8844444 129.724444,86.6733333 129.724444,104.324444 Z M145.611111,102.773333 C146.288889,95.9511111 150.364444,91.1777778 157.631111,91.1777778 C163.451111,91.1777778 169.502222,95.0266667 169.502222,102.773333 L145.611111,102.773333 Z" id="Shape" fill="#000000"></path>
            <path d="M185.72,130.977778 L202.351111,130.977778 L202.351111,74.4222222 L185.72,74.4222222 L185.72,130.977778 Z M194.035556,62.4266667 C199.351111,62.4266667 203.644444,58.7555556 203.644444,53.2311111 C203.644444,48.9377778 199.351111,45.2666667 194.035556,45.2666667 C189.035556,45.2666667 184.742222,48.9377778 184.742222,53.2311111 C184.742222,58.7555556 189.035556,62.4266667 194.035556,62.4266667 Z" id="Shape" fill="#000000"></path>
            <path d="M259.48,80.28 C254.613333,76.1466667 249.697778,74.6555556 244.151111,74.6555556 C230.146667,74.6555556 220.36,85.4266667 220.36,102.773333 C220.36,120.12 230.146667,130.977778 244.151111,130.977778 C249.926667,130.977778 254.842222,129.311111 259.48,125.177778 L259.48,130.977778 L276.351111,130.977778 L276.351111,74.4222222 L259.48,74.4222222 L259.48,80.28 Z M247.928889,120.808889 C240.071111,120.808889 236.458889,113.504444 236.458889,102.773333 C236.458889,91.6933333 240.302222,84.8422222 247.928889,84.8422222 C255.555556,84.8422222 259.48,91.6933333 259.48,102.773333 C259.48,113.504444 255.555556,120.808889 247.928889,120.808889 Z" id="Shape" fill="#000000"></path>
        </g>
    </g>
</svg>