<?xml version="1.0" encoding="UTF-8" standalone="no"?>
<svg width="800" height="500" xmlns="http://www.w3.org/2000/svg">
  <!-- Background gradient -->
  <defs>
    <linearGradient id="bgGradient" x1="0%" y1="0%" x2="100%" y2="100%">
      <stop offset="0%" style="stop-color:#e9ecef;stop-opacity:1" />
      <stop offset="100%" style="stop-color:#f8f9fa;stop-opacity:1" />
    </linearGradient>
    <linearGradient id="carGradient" x1="0%" y1="0%" x2="100%" y2="100%">
      <stop offset="0%" style="stop-color:#3a86ff;stop-opacity:1" />
      <stop offset="100%" style="stop-color:#4dabf7;stop-opacity:1" />
    </linearGradient>
    <filter id="shadow" x="-20%" y="-20%" width="140%" height="140%">
      <feDropShadow dx="0" dy="15" stdDeviation="15" flood-color="#000" flood-opacity="0.2"/>
    </filter>
    <filter id="glowEffect">
      <feGaussianBlur stdDeviation="8" result="blur" />
      <feComposite in="SourceGraphic" in2="blur" operator="over" />
    </filter>
  </defs>
  
  <!-- Background -->
  <rect width="800" height="500" fill="url(#bgGradient)"/>
  
  <!-- Road -->
  <rect x="50" y="390" width="700" height="20" rx="2" ry="2" fill="#495057" opacity="0.7"/>
  
  <!-- Car shadow -->
  <ellipse cx="400" cy="410" rx="320" ry="25" fill="#212529" opacity="0.2"/>
  
  <!-- Car body -->
  <g filter="url(#shadow)">
    <!-- Main body -->
    <path d="M170,300 
             C170,270 220,230 340,230 
             C460,230 500,240 550,240
             C600,240 630,255 630,300
             L630,340 
             C630,350 620,360 610,360
             L190,360
             C180,360 170,350 170,340
             Z" 
          fill="url(#carGradient)"/>
    
    <!-- Roof -->
    <path d="M280,230 
             C330,200 400,200 450,230" 
          fill="none" 
          stroke="#1a5fb4" 
          stroke-width="8"
          stroke-linecap="round"/>
    
    <!-- Windows -->
    <path d="M280,230 
             L280,300 
             L450,300 
             L450,230" 
          fill="#e0f2fe" 
          opacity="0.8"/>
    
    <!-- Window divider -->
    <line x1="365" y1="230" x2="365" y2="300" stroke="#3a86ff" stroke-width="3"/>
  </g>
  
  <!-- Wheels -->
  <g>
    <!-- Left wheel -->
    <circle cx="250" cy="360" r="45" fill="#212529"/>
    <circle cx="250" cy="360" r="35" fill="#343a40"/>
    <circle cx="250" cy="360" r="20" fill="#6c757d"/>
    <circle cx="250" cy="360" r="10" fill="#adb5bd"/>
    
    <!-- Wheel spokes -->
    <line x1="250" y1="325" x2="250" y2="395" stroke="#adb5bd" stroke-width="2"/>
    <line x1="215" y1="360" x2="285" y2="360" stroke="#adb5bd" stroke-width="2"/>
    <line x1="225" y1="335" x2="275" y2="385" stroke="#adb5bd" stroke-width="2"/>
    <line x1="225" y1="385" x2="275" y2="335" stroke="#adb5bd" stroke-width="2"/>
    
    <!-- Right wheel -->
    <circle cx="550" cy="360" r="45" fill="#212529"/>
    <circle cx="550" cy="360" r="35" fill="#343a40"/>
    <circle cx="550" cy="360" r="20" fill="#6c757d"/>
    <circle cx="550" cy="360" r="10" fill="#adb5bd"/>
    
    <!-- Wheel spokes -->
    <line x1="550" y1="325" x2="550" y2="395" stroke="#adb5bd" stroke-width="2"/>
    <line x1="515" y1="360" x2="585" y2="360" stroke="#adb5bd" stroke-width="2"/>
    <line x1="525" y1="335" x2="575" y2="385" stroke="#adb5bd" stroke-width="2"/>
    <line x1="525" y1="385" x2="575" y2="335" stroke="#adb5bd" stroke-width="2"/>
  </g>
  
  <!-- Headlights -->
  <circle cx="180" cy="300" r="15" fill="#fff176" filter="url(#glowEffect)"/>
  <circle cx="620" cy="300" r="15" fill="#fff176" filter="url(#glowEffect)"/>
  
  <!-- Details -->
  <rect x="200" y="320" width="430" height="5" rx="2" ry="2" fill="#212529"/>
  <rect x="190" y="260" width="70" height="30" rx="5" ry="5" fill="#212529" opacity="0.7"/>
  <rect x="540" y="260" width="70" height="30" rx="5" ry="5" fill="#212529" opacity="0.7"/>
  
  <!-- Door lines -->
  <line x1="320" y1="240" x2="320" y2="350" stroke="#1a5fb4" stroke-width="2"/>
  <line x1="410" y1="240" x2="410" y2="350" stroke="#1a5fb4" stroke-width="2"/>
  
  <!-- Door handles -->
  <rect x="330" y="280" width="20" height="5" rx="2" ry="2" fill="#e9ecef"/>
  <rect x="420" y="280" width="20" height="5" rx="2" ry="2" fill="#e9ecef"/>
  
  <!-- Animated effects -->
  <circle cx="180" cy="300" r="5" fill="#ffffff">
    <animate attributeName="opacity" values="0;1;0" dur="2s" repeatCount="indefinite"/>
  </circle>
  <circle cx="620" cy="300" r="5" fill="#ffffff">
    <animate attributeName="opacity" values="0;1;0" dur="2s" repeatCount="indefinite"/>
  </circle>
  
  <!-- Speed lines -->
  <g opacity="0.2">
    <line x1="650" y1="270" x2="750" y2="270" stroke="#3a86ff" stroke-width="3" stroke-dasharray="20,10">
      <animate attributeName="x1" values="650;600" dur="3s" repeatCount="indefinite"/>
      <animate attributeName="x2" values="750;700" dur="3s" repeatCount="indefinite"/>
    </line>
    <line x1="650" y1="310" x2="780" y2="310" stroke="#3a86ff" stroke-width="4" stroke-dasharray="30,15">
      <animate attributeName="x1" values="650;580" dur="2s" repeatCount="indefinite"/>
      <animate attributeName="x2" values="780;710" dur="2s" repeatCount="indefinite"/>
    </line>
    <line x1="650" y1="350" x2="800" y2="350" stroke="#3a86ff" stroke-width="5" stroke-dasharray="25,12">
      <animate attributeName="x1" values="650;620" dur="4s" repeatCount="indefinite"/>
      <animate attributeName="x2" values="800;770" dur="4s" repeatCount="indefinite"/>
    </line>
  </g>
  
  <!-- Text overlay -->
  <text x="400" y="470" font-family="Montserrat, sans-serif" font-size="32" text-anchor="middle" fill="#212529" font-weight="bold">Premium Car Rental Service</text>
  
  <!-- Floating decorative elements -->
  <g opacity="0.1">
    <circle cx="100" cy="100" r="20" fill="#3a86ff">
      <animate attributeName="cy" values="100;120;100" dur="4s" repeatCount="indefinite"/>
    </circle>
    <circle cx="700" cy="150" r="15" fill="#3a86ff">
      <animate attributeName="cy" values="150;170;150" dur="3s" repeatCount="indefinite"/>
    </circle>
    <circle cx="200" cy="450" r="25" fill="#3a86ff">
      <animate attributeName="cy" values="450;430;450" dur="5s" repeatCount="indefinite"/>
    </circle>
    <circle cx="600" cy="420" r="18" fill="#3a86ff">
      <animate attributeName="cy" values="420;440;420" dur="3.5s" repeatCount="indefinite"/>
    </circle>
  </g>
</svg>
