<?xml version="1.0" encoding="UTF-8"?>
<svg width="100" height="32" viewBox="0 0 100 32" fill="none" xmlns="http://www.w3.org/2000/svg">
  <path d="M40.9613 10.5264H36.1433C35.8831 10.5264 35.6662 10.7091 35.6229 10.9664L33.5591 24.4364C33.5289 24.6076 33.6632 24.7636 33.8374 24.7636H36.1349C36.3953 24.7636 36.6122 24.581 36.6555 24.3235L37.1834 21.2152C37.2264 20.9581 37.4436 20.7752 37.704 20.7752H39.3033C42.4476 20.7752 44.2051 19.3085 44.6718 16.2896C44.8844 15.0057 44.6411 13.9855 43.9574 13.2863C43.2054 12.5147 42.0198 12.5147 40.9613 12.5147L40.9613 10.5264ZM41.429 16.3942C41.1778 18.1116 39.8219 18.1116 38.5024 18.1116H37.7936L38.3047 15.0993C38.3303 14.9455 38.4605 14.8315 38.6165 14.8315H38.9379C39.8215 14.8315 40.6663 14.8315 41.104 15.3375C41.3665 15.6423 41.4902 15.9467 41.429 16.3941L41.429 16.3942Z" fill="#003087"/>
  <path d="M55.0532 16.3232H52.7517C52.5957 16.3232 52.4654 16.4374 52.4398 16.5911L52.3245 17.2794L52.1516 17.0376C51.6354 16.32 50.5616 16.0766 49.4887 16.0766C47.0099 16.0766 44.8849 17.9085 44.4349 20.5091C44.203 21.8012 44.4888 23.0416 45.2238 23.8872C45.8957 24.6677 46.8602 24.9985 47.9818 24.9985C49.958 24.9985 51.0487 23.756 51.0487 23.756L50.9333 24.4369C50.9031 24.608 51.0374 24.764 51.2116 24.764H53.3066C53.567 24.764 53.7839 24.5814 53.8272 24.3239L55.3311 16.6508C55.3611 16.4796 55.2272 16.3233 55.0532 16.3233L55.0532 16.3232ZM51.7334 20.5783C51.4994 21.8512 50.4518 22.6759 49.1138 22.6759C48.442 22.6759 47.9055 22.473 47.5763 22.1081C47.2498 21.7459 47.1343 21.2089 47.2491 20.6074C47.4685 19.3473 48.5333 18.4996 49.8528 18.4996C50.5077 18.4996 51.0444 18.7041 51.3819 19.0723C51.7221 19.4448 51.8508 19.9844 51.7334 20.5782V20.5783Z" fill="#003087"/>
  <path d="M67.9045 16.3232H65.6031C65.4211 16.3232 65.2516 16.4115 65.1598 16.5666L61.8811 21.4886L60.3693 16.7055C60.3021 16.4789 60.0959 16.3232 59.8619 16.3232H57.6084C57.4131 16.3232 57.2813 16.5232 57.3386 16.7073L60.0465 24.1372L57.5169 27.8049C57.384 27.9973 57.5213 28.2627 57.7577 28.2627H60.0575C60.237 28.2627 60.4048 28.1773 60.4976 28.0249L68.1457 16.7807C68.2775 16.5885 68.1407 16.3235 67.9047 16.3235L67.9045 16.3232Z" fill="#003087"/>
  <path d="M75.4698 10.5264H70.6518C70.3915 10.5264 70.1747 10.7091 70.1314 10.9664L68.0676 24.4364C68.0375 24.6076 68.1718 24.7636 68.346 24.7636H70.7865C70.9664 24.7636 71.1242 24.6276 71.1489 24.4491L71.6919 21.2152C71.7349 20.9581 71.9521 20.7752 72.2126 20.7752H73.8118C76.9562 20.7752 78.7137 19.3085 79.1803 16.2896C79.3929 15.0057 79.1497 13.9855 78.466 13.2863C77.714 12.5147 76.5284 12.5147 75.4698 12.5147L75.4698 10.5264ZM75.9376 16.3942C75.6863 18.1116 74.3304 18.1116 73.0109 18.1116H72.3021L72.8132 15.0993C72.8388 14.9455 72.969 14.8315 73.125 14.8315H73.4464C74.3301 14.8315 75.1749 14.8315 75.6125 15.3375C75.875 15.6423 75.9987 15.9467 75.9376 16.3941L75.9376 16.3942Z" fill="#009CDE"/>
  <path d="M89.5617 16.3232H87.2602C87.1042 16.3232 86.9739 16.4374 86.9483 16.5911L86.833 17.2794L86.6601 17.0376C86.1439 16.32 85.0701 16.0766 83.9972 16.0766C81.5184 16.0766 79.3934 17.9085 78.9434 20.5091C78.7115 21.8012 78.9973 23.0416 79.7323 23.8872C80.4042 24.6677 81.3687 24.9985 82.4903 24.9985C84.4665 24.9985 85.5572 23.756 85.5572 23.756L85.4418 24.4369C85.4116 24.608 85.5459 24.764 85.7201 24.764H87.8152C88.0755 24.764 88.2924 24.5814 88.3357 24.3239L89.8396 16.6508C89.8695 16.4796 89.7356 16.3233 89.5617 16.3233L89.5617 16.3232ZM86.2419 20.5783C86.0079 21.8512 84.9603 22.6759 83.6223 22.6759C82.9505 22.6759 82.414 22.473 82.0848 22.1081C81.7583 21.7459 81.6427 21.2089 81.7576 20.6074C81.977 19.3473 83.0418 18.4996 84.3613 18.4996C85.0162 18.4996 85.5529 18.7041 85.8904 19.0723C86.2304 19.4448 86.3593 19.9844 86.2419 20.5782V20.5783Z" fill="#009CDE"/>
</svg>