<?xml version="1.0" encoding="UTF-8"?>
<svg width="100" height="32" viewBox="0 0 100 32" fill="none" xmlns="http://www.w3.org/2000/svg">
  <path d="M41.2729 10.8304H34.6025L34.5778 11.0033C38.2326 11.9336 40.7474 14.0213 41.7342 16.6668L39.8477 11.3245C39.609 10.5842 38.8961 10.8551 41.2729 10.8304Z" fill="#00579F"/>
  <path d="M58.3458 10.8304H53.5239L49.9434 23.2502H54.7668L58.3458 10.8304Z" fill="#00579F"/>
  <path d="M68.7531 14.9946C69.7152 14.9946 70.4652 15.1684 70.7037 15.2431L71.1167 15.3691L71.7792 11.9594C71.1167 11.736 69.8621 11.4868 68.3405 11.4868C64.7615 11.4868 62.1976 13.4565 62.1729 16.2457C62.1484 18.3071 64.0595 19.4864 65.505 20.2024C66.9986 20.9422 67.4604 21.4139 67.4604 22.0833C67.4358 23.1126 66.1341 23.5843 64.9286 23.5843C63.2606 23.5843 62.4116 23.3599 61.0416 22.8387L60.4525 22.5895L59.7653 26.1255C60.5667 26.4732 62.3375 26.7719 64.1727 26.7967C67.9964 26.7967 70.5111 24.8517 70.5357 21.8856C70.5357 20.2024 69.5004 18.9241 67.313 17.9194C65.9676 17.2506 65.1909 16.8026 65.1909 16.1094C65.2154 15.4903 65.8777 14.9946 68.7531 14.9946Z" fill="#00579F"/>
  <path d="M82.8012 10.8304H79.5584C78.6692 10.8304 78.0317 11.0795 77.6687 11.9107L72.0205 23.2502H75.8441C75.8441 23.2502 76.5804 21.3797 76.7212 21.0064C77.2567 21.0064 81.3324 21.0064 81.9961 21.0064C82.1124 21.4781 82.5252 23.2502 82.5252 23.2502H85.9088L82.8012 10.8304ZM77.9579 18.0834C78.3213 17.1777 79.4541 14.2054 79.4541 14.2054C79.4292 14.2548 79.7186 13.4899 79.8842 13.0183L80.1364 14.1224C80.1364 14.1224 80.8236 17.3033 81.0129 18.0834H77.9579Z" fill="#00579F"/>
  <path d="M30.9742 23.2502L34.3531 10.8304H38.0079L34.6289 23.2502H30.9742Z" fill="#00579F"/>
  <path d="M27.1516 10.8304L23.4712 19.3129L23.1099 17.5407L23.1082 17.5398L21.7887 11.8827C21.0538 11.0548 19.9974 10.8551 19.1463 10.8304H12.6748L12.6499 11.0795C14.0941 11.3788 15.3984 11.8075 16.5034 12.3292L21.4266 23.2495H25.3003L32.0005 10.8304H27.1516Z" fill="#00579F"/>
</svg>