<svg xmlns="http://www.w3.org/2000/svg" width="60" height="40" viewBox="0 0 60 40">
  <rect width="60" height="40" rx="4" fill="#ffffff"/>
  <path d="M46.5,25.1H41.9l-1-1.1l-1,1.1H32.2V19.5h-2l-2.8,4.2l-2.8-4.2h-2.1v9.2h7.8l1-1.1l1,1.1h5.3V26h.7c.5,0,1.3,0,1.3,1v3.7h2.9V26.5c0-.6.1-1.2.7-1.6h0c.4-.3,1.1-.5,1.7-.5a3.9,3.9,0,0,1,1.7.3h0ZM25.2,27.7H20.6V26.4h4.1V25.1H20.6V24h4.6V22.7H18.9v6.3h6.3Zm3.5,0h-2V22.7h-2.9v6.3h4.9Zm8.4-4.7,1.9,2V22.9h2.1v4.7H39.3l-2.1-2.2v2.2H33.4V22.9h2ZM46.1,24a1.8,1.8,0,0,0-1-.2,1.1,1.1,0,0,0-.9.5h0Zm0-4.6H25.1l-.8-1h-2.9l-.7,1H10v6.7h9.8L19.1,24H21l.7-1H44.5V24h1.6" fill="#016fd0"/>
  <path d="M45.4,10a2.4,2.4,0,0,0-1.2.3c-.2.2-.3.4-.3.7h0c0,.3.1.5.3.7a2.4,2.4,0,0,0,1.2.3,1.8,1.8,0,0,0,1-.2,1.2,1.2,0,0,0,.3-.8h0C46.7,10.3,46.1,10,45.4,10Zm-20.2,8.7h4.9V17.5H25.2V16.1h4.1V14.9H25.2V13.7h4.6V12.4H23.4v6.3Zm-7.3,0,3.9-6.3H19.6l-1.6,2.7-1.6-2.7h-3L15.7,16V19h1.7V16Zm22.5-6.3h-1.7v6.3h1.7Zm-8.5,2h2.7a1.2,1.2,0,0,0,1.2-1h0c0-.7-.5-1-1.2-1H30.2v6.3H32V14.9h.7l1.9,3.8h2.1l-2.3-3.9C35.6,14.6,36.3,14.1,36.3,13.3Zm6.3.9v-2H37.5v6.3h5.1V17.3H39.2V16h3.1V14.9H39.2v-.7Zm3.4,3.4a2.2,2.2,0,0,0,1.8.8,4.8,4.8,0,0,0,2-.5v-1.7a2.2,2.2,0,0,1-1.6.7c-1.1,0-1.8-1-1.8-2h0c0-1.1.8-2,1.7-2a1.3,1.3,0,0,1,1,.6h0a11.4,11.4,0,0,1,.8.7V11.8a3.4,3.4,0,0,0-1.7-.4,4,4,0,0,0,0,7.9Z" fill="#016fd0"/>
</svg>