<svg xmlns="http://www.w3.org/2000/svg" width="60" height="40" viewBox="0 0 60 40">
  <rect width="60" height="40" rx="4" fill="#016fd0"/>
  <path d="M30.18,21.91v-3.82h6.73v-2.36h-6.73v-3.55h6.73l2.91,4.91l-2.91,4.82H30.18z M9,21.91l0.82-2h2l0.82,2h3.09l-4.45-9.73h-3.09L4,21.91H9z M10.91,17.73l0.91-2.18l0.91,2.18H10.91z M20.18,21.91v-9.73h-4.09l-3.18,6.64l-3.18-6.64H6v9.73h2.73v-7l2.91,7h2.73l2.91-7l0.09,7H20.18z" fill="#ffffff"/>
  <path d="M52.36,15.46c0-3.27-2.18-3.27-2.82-3.27h-5.82v9.73h2.73v-3.64h0.91l3.18,3.64h3.36l-3.55-3.82C51.55,18.09,52.36,17.27,52.36,15.46z M47.55,16.09h-1.09v-1.73h1.09c0.55,0,1.18,0.09,1.18,0.82C48.73,16,48.09,16.09,47.55,16.09z M46.45,21.91h-11l-1.18-1.45l-1.18,1.45h-5.73v-9.73h5.91l1.18,1.45l1.18-1.45h7.82c1.55,0,3.18,0.45,3.18,2.73C46.64,21.36,46.45,21.91,46.45,21.91z M34,18.09h-3.36v-1.91h3v-1.55h-3v-1.73h3.45l2.36,2.64L34,18.09z M41.55,14.82h-3.18v-1.09h3.36v-1.55h-6.09v9.73h6.09v-1.55h-3.36v-1.09h3.18V14.82z" fill="#ffffff"/>
</svg>