
<?xml version="1.0" encoding="UTF-8" standalone="no"?>
<svg width="240px" height="70px" viewBox="0 0 240 70" version="1.1" xmlns="http://www.w3.org/2000/svg" xmlns:xlink="http://www.w3.org/1999/xlink">
  <defs>
    <linearGradient id="grad1" x1="0%" y1="0%" x2="100%" y2="100%">
      <stop offset="0%" style="stop-color:#2c3e50;stop-opacity:1" />
      <stop offset="100%" style="stop-color:#3498db;stop-opacity:1" />
    </linearGradient>
    <filter id="shadow" x="-20%" y="-20%" width="140%" height="140%">
      <feGaussianBlur in="SourceAlpha" stdDeviation="1"/>
      <feOffset dx="1" dy="1" result="offsetblur"/>
      <feComponentTransfer>
        <feFuncA type="linear" slope="0.7"/>
      </feComponentTransfer>
      <feMerge> 
        <feMergeNode/>
        <feMergeNode in="SourceGraphic"/> 
      </feMerge>
    </filter>
  </defs>
  <g stroke="none" stroke-width="1" fill="none" fill-rule="evenodd">
    <circle cx="45" cy="35" r="30" fill="url(#grad1)" filter="url(#shadow)"/>
    
    <path d="M25,32 L65,32 C68,32 69,34 70,36 L73,42 C74,44 73,46 71,46 L19,46 C17,46 16,44 17,42 L20,36 C21,34 22,32 25,32 Z" 
          fill="#ffffff" 
          filter="url(#shadow)"/>
    
    <path d="M35,32 L45,32 C50,32 55,34 58,38 L48,38 C47,36 45,34 40,34 Z" 
          fill="#ecf0f1" 
          opacity="0.8"/>
    
    <circle cx="30" cy="46" r="6" fill="#2c3e50"/>
    <circle cx="30" cy="46" r="4" fill="#34495e"/>
    <circle cx="30" cy="46" r="2" fill="#95a5a6"/>
    
    <circle cx="60" cy="46" r="6" fill="#2c3e50"/>
    <circle cx="60" cy="46" r="4" fill="#34495e"/>
    <circle cx="60" cy="46" r="2" fill="#95a5a6"/>
    
    <text font-family="Arial-BoldMT, Arial" font-size="28" font-weight="bold" fill="#2c3e50" filter="url(#shadow)">
      <tspan x="88" y="38">PREMIUM</tspan>
    </text>
    <text font-family="Arial-BoldMT, Arial" font-size="20" font-weight="bold" fill="#3498db">
      <tspan x="88" y="58">CAR RENTAL</tspan>
    </text>
  </g>
</svg>
