
<?xml version="1.0" encoding="UTF-8" standalone="no"?>
<svg width="240" height="70" viewBox="0 0 240 70" version="1.1" xmlns="http://www.w3.org/2000/svg">
  <defs>
    <linearGradient id="mainGradient" x1="0%" y1="0%" x2="100%" y2="100%">
      <stop offset="0%" style="stop-color:#FFFFFF;stop-opacity:1" />
      <stop offset="100%" style="stop-color:#F5F5F5;stop-opacity:1" />
    </linearGradient>
    <linearGradient id="accentGradient" x1="0%" y1="0%" x2="100%" y2="0%">
      <stop offset="0%" style="stop-color:#2962FF;stop-opacity:1" />
      <stop offset="100%" style="stop-color:#1565C0;stop-opacity:1" />
    </linearGradient>
  </defs>
  <g transform="translate(10,10)">
    <!-- Modern Abstract Shape -->
    <path d="M20,0 L200,0 C215,0 220,5 220,20 L220,40 C220,55 215,60 200,60 L20,60 C5,60 0,55 0,40 L0,20 C0,5 5,0 20,0 Z" 
          fill="url(#mainGradient)"/>
    
    <!-- Decorative Element -->
    <path d="M30,15 C40,15 45,25 45,30 C45,35 40,45 30,45 C20,45 15,35 15,30 C15,25 20,15 30,15" 
          fill="url(#accentGradient)" opacity="0.9"/>
    
    <!-- Company Name -->
    <text x="70" y="35" font-family="Arial-BoldMT, Arial" font-size="28" font-weight="bold" fill="#2962FF" letter-spacing="2">
      RAMEZ
    </text>
    
    <!-- Slogan -->
    <text x="70" y="50" font-family="Arial, sans-serif" font-size="12" fill="#1565C0">
      INNOVATION
    </text>
  </g>
</svg>
