
<?xml version="1.0" encoding="UTF-8" standalone="no"?>
<svg width="240" height="70" viewBox="0 0 240 70" version="1.1" xmlns="http://www.w3.org/2000/svg">
  <defs>
    <linearGradient id="grad1" x1="0%" y1="0%" x2="100%" y2="100%">
      <stop offset="0%" style="stop-color:#ffffff;stop-opacity:1" />
      <stop offset="100%" style="stop-color:#f5f5f5;stop-opacity:1" />
    </linearGradient>
  </defs>
  <g transform="translate(0,0)">
    <!-- Background Shape -->
    <path d="M20,10 L220,10 C230,10 240,20 240,30 L240,40 C240,50 230,60 220,60 L20,60 C10,60 0,50 0,40 L0,30 C0,20 10,10 20,10 Z" 
          fill="url(#grad1)"/>
    
    <!-- Text -->
    <text x="120" y="42" font-family="Arial-BoldMT, Arial" font-size="32" font-weight="bold" fill="#1a237e" text-anchor="middle" style="text-transform: uppercase;">
      RAMEZ
    </text>
    
    <!-- Decorative Elements -->
    <path d="M30,25 L45,25 L50,35 L45,45 L30,45 L25,35 Z" fill="#1a237e" opacity="0.9"/>
    <path d="M190,25 L205,25 L210,35 L205,45 L190,45 L185,35 Z" fill="#1a237e" opacity="0.9"/>
  </g>
</svg>
