<?xml version="1.0" encoding="UTF-8"?>
<svg width="60px" height="24px" viewBox="0 0 60 24" version="1.1" xmlns="http://www.w3.org/2000/svg" xmlns:xlink="http://www.w3.org/1999/xlink">
    <g id="icon" stroke="none" stroke-width="1" fill="none" fill-rule="evenodd">
        <g id="visa" transform="translate(2.000000, 4.000000)" fill="#1A1F71" fill-rule="nonzero">
            <path d="M2,12 L4,2 L6,12 L2,12 Z M12.6,12 L11.36,11.456 C11.16,11.36 11.04,11.28 11.04,11.04 C11.04,10.864 11.16,10.688 11.4,10.688 C11.608,10.688 11.776,10.752 11.896,10.832 L12,10.896 L12.216,9.744 C12.056,9.632 11.776,9.536 11.424,9.536 C10.664,9.536 10.16,10.032 10.16,10.736 C10.16,11.264 10.52,11.584 10.856,11.776 C11.168,11.968 11.256,12.096 11.256,12.256 C11.256,12.512 11.056,12.624 10.848,12.624 C10.528,12.624 10.336,12.56 10.056,12.432 L9.912,12.368 L9.712,13.568 C9.912,13.664 10.272,13.76 10.656,13.76 C11.456,13.76 11.936,13.264 11.936,12.544 C11.936,12.16 11.736,11.872 11.32,11.648 C11.024,11.488 10.88,11.376 10.88,11.216 C10.88,11.072 11,10.928 11.224,10.928 C11.456,10.928 11.632,10.976 11.76,11.024 L11.856,11.056 L12.6,12 Z M14.4,2 L13.656,2 C13.432,2 13.28,2.064 13.2,2.32 L11.6,12 L12.56,12 C12.56,12 12.752,11.44 12.784,11.36 L14.176,11.36 C14.208,11.48 14.32,12 14.32,12 L15.36,12 L14.4,2 Z M13.32,10.32 C13.376,10.16 13.64,9.28 13.64,9.28 C13.64,9.296 13.712,9.12 13.744,9.024 L13.8,9.2 C13.8,9.2 13.968,10.16 14,10.32 L13.32,10.32 Z M8.336,2 L8.336,10.32 L7.272,2 L6.4,2 C6.176,2 5.968,2.08 5.88,2.32 L4.4,12 L5.36,12 L5.584,10.32 L7.296,10.32 L7.392,12 L8.24,12 L8.336,2 Z" id="Shape"></path>
        </g>
        <g id="mastercard" transform="translate(25.000000, 4.000000)">
            <circle id="Oval" fill="#EB001B" cx="6" cy="8" r="6"></circle>
            <circle id="Oval" fill="#F79E1B" cx="10" cy="8" r="6"></circle>
            <path d="M8,11.024 C8.8715,11.46666667 9.89066667,11.7333333 11.0053333,11.7333333 C13.4213333,11.7333333 15.384,10.2243333 15.384,8.42933333 C15.384,6.63433333 13.421,5.12466667 11.0053333,5.12466667 C9.89,5.12466667 8.8715,5.39133333 8,5.83333333 C8.8715,5.39133333 9.89066667,5.12466667 11.0053333,5.12466667 C13.4213333,5.12466667 15.384,6.63433333 15.384,8.42933333 C15.384,10.2243333 13.421,11.7333333 11.0053333,11.7333333 C9.89,11.7333333 8.8715,11.46666667 8,11.024 Z" id="Shape" fill="#FF5F00"></path>
        </g>
        <g id="amex" transform="translate(44.000000, 4.000000)" fill="#0066AA" fill-rule="nonzero">
            <path d="M12.125,9.125 L11.25,6.875 L10.375,9.125 L12.125,9.125 Z M13.75,11 L13.75,11.75 L11.625,11.75 L11.625,11 L12,10.125 L10.5,10.125 L10.125,11 L10.125,11.75 L8,11.75 L8,11 L8.125,10.75 C8.25,10.5 8.375,10.25 8.5,10 C8.625,9.75 8.75,9.5 8.875,9.25 C9,9 9.125,8.75 9.25,8.5 C9.375,8.25 9.5,8 9.625,7.75 C9.75,7.5 9.875,7.25 10,7 C10.125,6.75 10.25,6.5 10.375,6.25 L10.375,6 L12,6 L13.375,9.75 L13.75,11 Z M6.75,9.75 L5.25,9.75 L5.25,8.5 L7,8.5 L7,7.5 L5.25,7.5 L5.25,6.25 L7,6.25 C7.25,6.25 7.5,6.25 7.625,6.375 C7.75,6.5 7.875,6.625 7.875,6.875 L7.875,8.875 C7.875,9.125 7.75,9.375 7.625,9.5 C7.5,9.625 7.125,9.75 6.75,9.75 L6.75,9.75 Z M0.25,11.75 L0.25,6 L1.625,6 L3,9 L4.375,6 L5.75,6 L5.75,11.75 L4.5,11.75 L4.5,7.875 L3.25,10.75 L2.75,10.75 L1.5,7.875 L1.5,11.75 L0.25,11.75 Z" id="Shape"></path>
        </g>
    </g>
</svg>