<svg xmlns="http://www.w3.org/2000/svg" width="60" height="40" viewBox="0 0 60 40">
  <rect width="60" height="40" rx="4" fill="#ffffff"/>
  <circle cx="30" cy="20" r="16" fill="#27ae60" opacity="0.1"/>
  <path d="M32,14h-8c-2.2,0-4,1.8-4,4v4c0,2.2,1.8,4,4,4h8c2.2,0,4-1.8,4-4v-4C36,15.8,34.2,14,32,14z M35,22c0,1.7-1.3,3-3,3h-8c-1.7,0-3-1.3-3-3v-4c0-1.7,1.3-3,3-3h8c1.7,0,3,1.3,3,3V22z" fill="#27ae60"/>
  <path d="M30,16c-2.2,0-4,1.8-4,4s1.8,4,4,4s4-1.8,4-4S32.2,16,30,16z M30,23c-1.7,0-3-1.3-3-3s1.3-3,3-3s3,1.3,3,3S31.7,23,30,23z" fill="#27ae60"/>
  <path d="M31,20c0,0.6-0.4,1-1,1s-1-0.4-1-1s0.4-1,1-1S31,19.4,31,20z" fill="#27ae60"/>
  <rect x="26" y="17" width="1" height="6" fill="#27ae60"/>
  <rect x="33" y="17" width="1" height="6" fill="#27ae60"/>
</svg>