<?xml version="1.0" encoding="UTF-8"?>
<svg width="512px" height="512px" viewBox="0 0 512 512" version="1.1" xmlns="http://www.w3.org/2000/svg">
    <g stroke="none" stroke-width="1" fill="none" fill-rule="evenodd">
        <g transform="translate(42.667, 149.333)" fill="#0070BA" fill-rule="nonzero">
            <path d="M384,192 L42.666667,192 C19.2,192 0,172.8 0,149.333333 L0,42.6666667 C0,19.2 19.2,0 42.666667,0 L384,0 C407.466667,0 426.666667,19.2 426.666667,42.6666667 L426.666667,149.333333 C426.666667,172.8 407.466667,192 384,192 Z M42.666667,21.3333333 C30.933333,21.3333333 21.333333,30.9333333 21.333333,42.6666667 L21.333333,149.333333 C21.333333,161.066667 30.933333,170.666667 42.666667,170.666667 L384,170.666667 C395.733333,170.666667 405.333333,161.066667 405.333333,149.333333 L405.333333,42.6666667 C405.333333,30.9333333 395.733333,21.3333333 384,21.3333333 L42.666667,21.3333333 Z" />
            <path d="M42.6666667,85.3333333 L384,85.3333333 C390.4,85.3333333 395.733333,90.6666667 395.733333,97.0666667 C395.733333,103.466667 390.4,108.8 384,108.8 L42.6666667,108.8 C36.2666667,108.8 30.9333333,103.466667 30.9333333,97.0666667 C30.9333333,90.6666667 36.2666667,85.3333333 42.6666667,85.3333333 Z" />
            <path d="M106.666667,128 L170.666667,128 C177.066667,128 182.4,133.333333 182.4,139.733333 C182.4,146.133333 177.066667,151.466667 170.666667,151.466667 L106.666667,151.466667 C100.266667,151.466667 94.9333333,146.133333 94.9333333,139.733333 C94.9333333,133.333333 100.266667,128 106.666667,128 Z" />
            <path d="M42.6666667,128 L85.3333333,128 C91.7333333,128 97.0666667,133.333333 97.0666667,139.733333 C97.0666667,146.133333 91.7333333,151.466667 85.3333333,151.466667 L42.6666667,151.466667 C36.2666667,151.466667 30.9333333,146.133333 30.9333333,139.733333 C30.9333333,133.333333 36.2666667,128 42.6666667,128 Z" />
            <path d="M320,128 L384,128 C390.4,128 395.733333,133.333333 395.733333,139.733333 C395.733333,146.133333 390.4,151.466667 384,151.466667 L320,151.466667 C313.6,151.466667 308.266667,146.133333 308.266667,139.733333 C308.266667,133.333333 313.6,128 320,128 Z" />
            <path d="M256,128 L298.666667,128 C305.066667,128 310.4,133.333333 310.4,139.733333 C310.4,146.133333 305.066667,151.466667 298.666667,151.466667 L256,151.466667 C249.6,151.466667 244.266667,146.133333 244.266667,139.733333 C244.266667,133.333333 249.6,128 256,128 Z" />
        </g>
    </g>
</svg>