<?xml version="1.0" encoding="UTF-8"?>
<svg width="100" height="32" viewBox="0 0 100 32" fill="none" xmlns="http://www.w3.org/2000/svg">
  <path d="M43.344 25.6H56.688V6.4H43.344V25.6Z" fill="#FF5F00"/>
  <path d="M44.544 16C44.544 12.16 46.336 8.72 49.2 6.4C47.168 4.8 44.544 3.84 41.76 3.84C35.36 3.84 30.24 9.28 30.24 16C30.24 22.72 35.36 28.16 41.76 28.16C44.544 28.16 47.168 27.2 49.2 25.6C46.336 23.44 44.544 19.84 44.544 16Z" fill="#EB001B"/>
  <path d="M69.792 16C69.792 22.72 64.672 28.16 58.272 28.16C55.488 28.16 52.864 27.2 50.832 25.6C53.856 23.28 55.488 19.84 55.488 16C55.488 12.16 53.696 8.72 50.832 6.4C52.864 4.8 55.488 3.84 58.272 3.84C64.672 3.84 69.792 9.44 69.792 16Z" fill="#F79E1B"/>
</svg>