<?xml version="1.0" encoding="UTF-8"?>
<svg width="48px" height="48px" viewBox="0 0 48 48" version="1.1" xmlns="http://www.w3.org/2000/svg" xmlns:xlink="http://www.w3.org/1999/xlink">
    <g id="icon" stroke="none" stroke-width="1" fill="none" fill-rule="evenodd">
        <g id="mastercard" transform="translate(8.000000, 12.000000)">
            <circle id="Oval" fill="#EB001B" cx="12" cy="12" r="12"></circle>
            <circle id="Oval" fill="#F79E1B" cx="20" cy="12" r="12"></circle>
            <path d="M16,18.924 C17.743,20.75 20.252,21.894 23.053,21.894 C28.542,21.894 32.998,17.449 32.998,11.976 C32.998,6.502 28.541,2.056 23.053,2.056 C20.251,2.056 17.743,3.201 16,5.027 C17.743,3.201 20.252,2.056 23.053,2.056 C28.542,2.056 32.998,6.502 32.998,11.976 C32.998,17.449 28.541,21.894 23.053,21.894 C20.251,21.894 17.743,20.75 16,18.924 Z" id="Shape" fill="#FF5F00"></path>
        </g>
    </g>
</svg>