<svg xmlns="http://www.w3.org/2000/svg" width="60" height="40" viewBox="0 0 60 40">
  <rect width="60" height="40" rx="4" fill="#ffffff"/>
  <circle cx="23" cy="20" r="10" fill="#eb001b" />
  <circle cx="37" cy="20" r="10" fill="#f79e1b" />
  <path d="M30,13c3.9,0,7,3.1,7,7s-3.1,7-7,7s-7-3.1-7-7S26.1,13,30,13z" fill="#ff5f00"/>
  <path d="M30,20c0-2.8,1.3-5.2,3.3-6.8c-1.5-1.2-3.3-1.9-5.3-1.9c-4.7,0-8.5,3.8-8.5,8.5s3.8,8.5,8.5,8.5c2,0,3.8-0.7,5.3-1.9C31.3,25.2,30,22.8,30,20z" fill="#eb001b"/>
  <path d="M43.5,20c0,4.7-3.8,8.5-8.5,8.5c-2,0-3.8-0.7-5.3-1.9c2-1.6,3.3-4,3.3-6.8s-1.3-5.2-3.3-6.8c1.5-1.2,3.3-1.9,5.3-1.9C39.7,11.5,43.5,15.3,43.5,20z" fill="#f79e1b"/>
</svg>