<svg xmlns="http://www.w3.org/2000/svg" width="60" height="40" viewBox="0 0 60 40">
  <rect width="60" height="40" rx="4" fill="#ffffff"/>
  <path d="M22,20a10,10,0,1,1,10,10,10,10,0,0,1-10-10Z" fill="#f04e23" style="opacity:.95"/>
  <path d="M38,20a10,10,0,1,1-10-10A10,10,0,0,1,38,20Z" fill="#fbb131" style="opacity:.95"/>
  <path d="M30,12.4a10,10,0,0,0,0,15.2,10,10,0,0,0,0-15.2Z" fill="#f79e1b" style="opacity:.9"/>
  <path d="M17.4,26.8h1v-3.9h-1.6a1.9,1.9,0,0,0-1.9,1.3V23h-.9v3.9h.9V24.5a1.3,1.3,0,0,1,1.2-1.4h1.3Zm20.7,0h1.6V23H38.1Zm-3.9.1c1.1,0,1.9-.6,1.9-1.5s-.8-1.3-1.6-1.5a.8.8,0,0,1-.9-.7c0-.3.4-.6.8-.6a2.9,2.9,0,0,1,1.2.3l.2-.8a3.4,3.4,0,0,0-1.4-.3,1.5,1.5,0,0,0-1.6,1.4c0,.8.7,1.2,1.5,1.4.7.2,1,.4,1,.8s-.3.7-.9.7a2.2,2.2,0,0,1-1.4-.4l-.2.8a2.5,2.5,0,0,0,1.4.4Zm8.4-.1h.8V24.2l2,2.7h1v-3.9h-.9v2.7l-2-2.7h-1Zm-16.1,0h.9V25.2H29V26h.9V25.2h1.8V26h.9V23h-.9v1.4H29.9V23H29Zm6.2,0h3V25.3h-2v-.7h1.8v-.8h-1.8v-.7h2V22.2h-3Zm-13.8,0c.7,0,1.2-.3,1.5-.8l-.7-.4a.9.9,0,0,1-.8.4,1.3,1.3,0,0,1,0-2.6.9.9,0,0,1,.8.4l.7-.4a1.5,1.5,0,0,0-1.5-.8,2.1,2.1,0,0,0,0,4.2Zm7.1,0a2.1,2.1,0,1,0,0-4.2,2.1,2.1,0,1,0,0,4.2Zm0-.8a1.3,1.3,0,0,1,0-2.6,1.3,1.3,0,0,1,0,2.6Zm-10.7.8h.9V23.8h1.3v-.9H24.3v.9h1.3Z" fill="#231f20"/>
</svg>