<svg xmlns="http://www.w3.org/2000/svg" width="60" height="40" viewBox="0 0 60 40">
  <rect width="60" height="40" rx="4" fill="#ffffff"/>
  <path d="M44.15,17.15c0.09-0.61,0-1.03-0.32-1.4c-0.35-0.41-0.97-0.59-1.78-0.59h-2.58c-0.2,0-0.37,0.14-0.4,0.34l-1.18,7.5c-0.02,0.15,0.09,0.29,0.25,0.29h1.32c0.14,0,0.26-0.1,0.28-0.24l0.34-2.13c0.03-0.19,0.2-0.34,0.4-0.34h0.81c1.93,0,3.04-0.93,3.33-2.78c0.14-0.81,0.01-1.45-0.39-1.89C44.92,17.4,44.58,17.25,44.15,17.15z M41.84,19.45c-0.16,1.04-0.95,1.04-1.72,1.04h-0.44l0.31-1.94c0.02-0.12,0.12-0.21,0.25-0.21h0.2c0.52,0,1.02,0,1.27,0.3C41.86,18.84,41.9,19.09,41.84,19.45z" fill="#003087"/>
  <path d="M22.75,17.15c0.09-0.61,0-1.03-0.32-1.4c-0.35-0.41-0.97-0.59-1.78-0.59h-2.58c-0.2,0-0.37,0.14-0.4,0.34l-1.18,7.5c-0.02,0.15,0.09,0.29,0.25,0.29h1.23c0.2,0,0.37-0.14,0.4-0.34l0.32-2.03c0.03-0.19,0.2-0.34,0.4-0.34h0.81c1.93,0,3.04-0.93,3.33-2.78c0.14-0.81,0.01-1.45-0.39-1.89C23.52,17.4,23.18,17.25,22.75,17.15z M20.44,19.45c-0.16,1.04-0.95,1.04-1.72,1.04h-0.44l0.31-1.94c0.02-0.12,0.12-0.21,0.25-0.21h0.2c0.52,0,1.02,0,1.27,0.3C20.46,18.84,20.5,19.09,20.44,19.45z" fill="#003087"/>
  <path d="M30.86,19.38h-1.23c-0.12,0-0.23,0.09-0.25,0.21l-0.06,0.4l-0.1-0.15c-0.32-0.46-1.02-0.61-1.73-0.61c-1.62,0-3,1.23-3.27,2.95c-0.14,0.86,0.06,1.68,0.55,2.25c0.45,0.53,1.09,0.75,1.85,0.75c1.31,0,2.03-0.84,2.03-0.84l-0.07,0.41c-0.02,0.15,0.09,0.29,0.25,0.29h1.11c0.2,0,0.37-0.14,0.4-0.34l0.76-4.79C31.13,19.52,31.02,19.38,30.86,19.38z M28.95,22.08c-0.14,0.84-0.81,1.4-1.67,1.4c-0.43,0-0.77-0.14-0.99-0.4c-0.22-0.26-0.3-0.63-0.23-1.04c0.13-0.83,0.82-1.41,1.66-1.41c0.42,0,0.76,0.14,0.99,0.4C28.94,21.3,29.02,21.67,28.95,22.08z" fill="#003087"/>
  <path d="M39.34,19.38h-1.23c-0.12,0-0.23,0.09-0.25,0.21l-0.06,0.4l-0.1-0.15c-0.32-0.46-1.02-0.61-1.73-0.61c-1.62,0-3,1.23-3.27,2.95c-0.14,0.86,0.06,1.68,0.55,2.25c0.45,0.53,1.09,0.75,1.85,0.75c1.31,0,2.03-0.84,2.03-0.84l-0.07,0.41c-0.02,0.15,0.09,0.29,0.25,0.29h1.11c0.2,0,0.37-0.14,0.4-0.34l0.76-4.79C39.61,19.52,39.5,19.38,39.34,19.38z M37.43,22.08c-0.14,0.84-0.81,1.4-1.67,1.4c-0.43,0-0.77-0.14-0.99-0.4c-0.22-0.26-0.3-0.63-0.23-1.04c0.13-0.83,0.82-1.41,1.66-1.41c0.42,0,0.76,0.14,0.99,0.4C37.42,21.3,37.5,21.67,37.43,22.08z" fill="#003087"/>
  <path d="M34.1,19.45l-0.78,4.93c-0.02,0.15,0.09,0.29,0.25,0.29h1.11c0.2,0,0.37-0.14,0.4-0.34l0.77-4.87c0.02-0.15-0.09-0.29-0.25-0.29h-1.24C34.22,19.17,34.12,19.29,34.1,19.45z" fill="#003087"/>
  <path d="M46.07,15.39l-1.2,7.64c-0.02,0.15,0.09,0.29,0.25,0.29h1.11c0.2,0,0.37-0.14,0.4-0.34l1.19-7.5c0.02-0.15-0.09-0.29-0.25-0.29h-1.24C46.2,15.18,46.09,15.27,46.07,15.39z" fill="#003087"/>
  <path d="M41.79,22.28c-0.03,0.17,0.01,0.24,0.08,0.3c0.07,0.06,0.19,0.08,0.32,0.08h1.17c0.21,0,0.38-0.15,0.42-0.36L44,20.85c0.01-0.04,0.04-0.07,0.07-0.07h0.13c0.04,0,0.06,0.03,0.06,0.07l-0.36,2.27c-0.03,0.17,0.01,0.24,0.08,0.3c0.07,0.06,0.19,0.08,0.32,0.08h1.17c0.21,0,0.38-0.15,0.42-0.36l0.59-3.73c0.03-0.17-0.01-0.24-0.08-0.3c-0.07-0.06-0.19-0.08-0.32-0.08H40.9c-0.21,0-0.38,0.15-0.42,0.36l-0.59,3.73C41.79,22.28,41.79,22.28,41.79,22.28z" fill="#0070e0"/>
  <path d="M23.53,22.28c-0.03,0.17,0.01,0.24,0.08,0.3c0.07,0.06,0.19,0.08,0.32,0.08h1.17c0.21,0,0.38-0.15,0.42-0.36l0.22-1.45c0.01-0.04,0.04-0.07,0.07-0.07h0.13c0.04,0,0.06,0.03,0.06,0.07l-0.36,2.27c-0.03,0.17,0.01,0.24,0.08,0.3c0.07,0.06,0.19,0.08,0.32,0.08h1.17c0.21,0,0.38-0.15,0.42-0.36l0.59-3.73c0.03-0.17-0.01-0.24-0.08-0.3c-0.07-0.06-0.19-0.08-0.32-0.08h-5.18c-0.21,0-0.38,0.15-0.42,0.36l-0.59,3.73C23.53,22.28,23.53,22.28,23.53,22.28z" fill="#0070e0"/>
  <path d="M37.41,17.33l0.2-1.29c0.03-0.17-0.01-0.24-0.08-0.3c-0.07-0.06-0.19-0.08-0.32-0.08h-1.17c-0.21,0-0.38,0.15-0.42,0.36l-0.2,1.29h-0.69c-0.21,0-0.38,0.15-0.42,0.36l-0.12,0.73c-0.03,0.17,0.01,0.24,0.08,0.3c0.07,0.06,0.19,0.08,0.32,0.08h0.69l-0.45,2.83c-0.03,0.22-0.07,0.39-0.11,0.53c-0.04,0.15-0.09,0.26-0.15,0.34c-0.05,0.08-0.11,0.14-0.18,0.16c-0.07,0.03-0.15,0.04-0.24,0.04h-0.69c-0.21,0-0.38,0.15-0.42,0.36l-0.12,0.73c-0.03,0.17,0.01,0.24,0.08,0.3c0.07,0.06,0.19,0.08,0.32,0.08h0.69c0.27,0,0.51-0.04,0.75-0.11c0.24-0.07,0.45-0.19,0.64-0.36c0.18-0.17,0.34-0.39,0.47-0.67c0.13-0.28,0.22-0.63,0.28-1.05l0.45-2.83h1.38c0.21,0,0.38-0.15,0.42-0.36l0.12-0.73c0.03-0.17-0.01-0.24-0.08-0.3c-0.07-0.06-0.19-0.08-0.32-0.08h-1.38l0.2-1.29c0.01-0.04,0.04-0.07,0.07-0.07h1.38c0.21,0,0.38-0.15,0.42-0.36l0.12-0.73c0.03-0.17-0.01-0.24-0.08-0.3c-0.07-0.06-0.19-0.08-0.32-0.08h-1.38c-0.21,0-0.38,0.15-0.42,0.36L35,17.33h-0.69c-0.21,0-0.38,0.15-0.42,0.36l-0.12,0.73c-0.03,0.17,0.01,0.24,0.08,0.3c0.07,0.06,0.19,0.08,0.32,0.08h0.69l-0.46,2.87c-0.03,0.22-0.07,0.39-0.11,0.53c-0.04,0.15-0.09,0.26-0.15,0.34c-0.05,0.08-0.11,0.14-0.18,0.16c-0.07,0.03-0.15,0.04-0.24,0.04h-0.69c-0.21,0-0.38,0.15-0.42,0.36l-0.12,0.73c-0.03,0.17,0.01,0.24,0.08,0.3c0.07,0.06,0.19,0.08,0.32,0.08h0.69c0.27,0,0.51-0.04,0.75-0.11c0.24-0.07,0.45-0.19,0.64-0.36c0.18-0.17,0.34-0.39,0.47-0.67c0.13-0.28,0.22-0.63,0.28-1.05l0.46-2.87h0.69c0.21,0,0.38-0.15,0.42-0.36l0.12-0.73c0.03-0.17-0.01-0.24-0.08-0.3c-0.07-0.06-0.19-0.08-0.32-0.08h-0.69v-0.01h0.69c0.21,0,0.38-0.15,0.42-0.36l0.12-0.73c0.03-0.17-0.01-0.24-0.08-0.3c-0.07-0.06-0.19-0.08-0.32-0.08L37.41,17.33L37.41,17.33z" fill="#0070e0"/>
  <path d="M28.34,16.28L28.06,18c0,0.02-0.02,0.04-0.05,0.04h-1.38c-0.21,0-0.38,0.15-0.42,0.36l-0.12,0.73c-0.03,0.17,0.01,0.24,0.08,0.3c0.07,0.06,0.19,0.08,0.32,0.08h1.38c0.02,0,0.04,0.02,0.04,0.05l-0.28,1.76c-0.03,0.17,0.01,0.24,0.08,0.3c0.07,0.06,0.19,0.08,0.32,0.08h1.17c0.21,0,0.38-0.15,0.42-0.36l0.28-1.76c0-0.02,0.02-0.04,0.04-0.04h1.38c0.21,0,0.38-0.15,0.42-0.36l0.12-0.73c0.03-0.17-0.01-0.24-0.08-0.3c-0.07-0.06-0.19-0.08-0.32-0.08h-1.38c-0.02,0-0.04-0.02-0.05-0.04l0.28-1.76c0.03-0.17-0.01-0.24-0.08-0.3c-0.07-0.06-0.19-0.08-0.32-0.08h-1.17c-0.21,0.01-0.38,0.16-0.42,0.36C28.34,16.27,28.34,16.28,28.34,16.28z" fill="#0070e0"/>
</svg>