<svg xmlns="http://www.w3.org/2000/svg" width="60" height="40" viewBox="0 0 60 40">
  <rect width="60" height="40" rx="4" fill="#ffffff"/>
  <path d="M21.7,17.9c-0.3-0.4-0.8-0.6-1.6-0.6h-2.1c-0.2,0-0.3,0.1-0.3,0.3l-1,6.1c0,0.1,0.1,0.2,0.2,0.2h1c0.2,0,0.3-0.1,0.3-0.3l0.3-1.7c0-0.2,0.2-0.3,0.3-0.3h0.7c1.5,0,2.4-0.7,2.6-2.2c0.1-0.6,0-1.1-0.3-1.5Zm-1.2,1.5c-0.1,0.8-0.7,0.8-1.3,0.8h-0.3l0.2-1.4c0-0.1,0.1-0.1,0.2-0.1h0.1c0.4,0,0.8,0,1,0.3c0.1,0.1,0.1,0.3,0.1,0.5Z" fill="#253b80"/>
  <path d="M28.7,19.4h-1c-0.1,0-0.2,0.1-0.2,0.1l-0.1,0.7-0.2-0.3c-0.3-0.4-0.9-0.5-1.5-0.5-1.4,0-2.6,1.1-2.9,2.6c-0.1,0.7,0.1,1.4,0.5,1.9c0.4,0.4,0.9,0.6,1.6,0.6c1.1,0,1.7-0.7,1.7-0.7l-0.1,0.3c0,0.1,0.1,0.2,0.2,0.2h0.9c0.2,0,0.3-0.1,0.3-0.3l0.6-3.9c0-0.1,-0.1-0.2,-0.2-0.2Zm-1.5,2.2c-0.1,0.8-0.7,1.3-1.5,1.3-0.4,0-0.7-0.1-0.9-0.3c-0.2-0.2-0.3-0.5-0.2-0.9c0.1-0.7,0.7-1.3,1.4-1.3,0.4,0,0.7,0.1,0.9,0.3c0.2,0.2,0.3,0.6,0.2,0.9Z" fill="#253b80"/>
  <path d="M34.8,19.4h-1c-0.1,0-0.2,0-0.2,0.1c-0.1,0.1-1.3,1.3-1.4,1.4l-0.6-1.3c0-0.1-0.2-0.2-0.3-0.2h-1c-0.1,0-0.2,0.1-0.2,0.2c0,0,1.2,2.3,1.3,2.5c-0.1,0.2-0.8,1.1-0.8,1.1c-0.1,0.1,0,0.2,0.1,0.2h1c0.1,0,0.2,0,0.3-0.1l4-4c0.1-0.1,0-0.3,-0.1-0.3Z" fill="#253b80"/>
  <path d="M41.1,17.9c-0.3-0.4-0.9-0.6-1.6-0.6h-2.1c-0.2,0-0.3,0.1-0.3,0.3l-1,6.1c0,0.1,0.1,0.2,0.2,0.2h1.1c0.1,0,0.2-0.1,0.2-0.2l0.3-1.8c0-0.2,0.2-0.3,0.3-0.3h0.7c1.5,0,2.4-0.7,2.6-2.2c0.1-0.6,0-1.1-0.3-1.5Zm-1.3,1.5c-0.1,0.8-0.7,0.8-1.3,0.8h-0.3l0.2-1.4c0-0.1,0.1-0.1,0.2-0.1h0.1c0.4,0,0.8,0,1,0.3c0.1,0.1,0.2,0.3,0.1,0.5Z" fill="#179bd7"/>
  <path d="M44.4,19.4h-1c-0.1,0-0.2,0.1-0.2,0.1l-0.1,0.7-0.2-0.3c-0.3-0.4-0.9-0.5-1.5-0.5-1.4,0-2.6,1.1-2.9,2.6c-0.1,0.7,0.1,1.4,0.5,1.9c0.4,0.4,0.9,0.6,1.6,0.6c1.1,0,1.7-0.7,1.7-0.7l-0.1,0.3c0,0.1,0.1,0.2,0.2,0.2h0.9c0.2,0,0.3-0.1,0.3-0.3l0.6-3.9c0-0.1,-0.1-0.2,-0.2-0.2Zm-1.5,2.2c-0.1,0.8-0.7,1.3-1.5,1.3-0.4,0-0.7-0.1-0.9-0.3c-0.2-0.2-0.3-0.5-0.2-0.9c0.1-0.7,0.7-1.3,1.4-1.3,0.4,0,0.7,0.1,0.9,0.3c0.2,0.2,0.3,0.6,0.2,0.9Z" fill="#179bd7"/>
  <path d="M46.4,17.6l-1,6.1c0,0.1,0.1,0.2,0.2,0.2h0.9c0.2,0,0.3-0.1,0.3-0.3l1-6.1c0-0.1-0.1-0.2-0.2-0.2h-1c-0.1,0-0.2,0.1-0.2,0.2Z" fill="#179bd7"/>
</svg>