<?xml version="1.0" encoding="UTF-8"?>
<svg width="48px" height="48px" viewBox="0 0 48 48" version="1.1" xmlns="http://www.w3.org/2000/svg" xmlns:xlink="http://www.w3.org/1999/xlink">
    <g id="icon" stroke="none" stroke-width="1" fill="none" fill-rule="evenodd">
        <g id="paypal" transform="translate(8.000000, 8.000000)" fill-rule="nonzero">
            <path d="M28.657,9.928 C28.665,9.684 28.633,9.440 28.557,9.207 C28.086,7.797 26.644,7 24.648,7 L16.428,7 C16.146,7 15.897,7.198 15.832,7.473 L12.028,25.626 C11.983,25.813 12.083,26.000 12.265,26.051 C12.290,26.059 12.318,26.062 12.346,26.062 L16.149,26.062 C16.430,26.062 16.680,25.863 16.744,25.591 L17.640,20.873 C17.703,20.601 17.952,20.403 18.233,20.401 L20.290,20.401 C24.353,20.401 27.001,18.414 27.662,14.610 C27.970,12.891 27.723,11.547 28.657,9.928 Z" id="Shape" fill="#009BE1"></path>
            <path d="M13.033,14.627 C13.092,14.284 13.382,14.049 13.715,14.049 L21.240,14.049 C21.837,14.049 22.392,14.084 22.898,14.158 C23.053,14.183 23.206,14.211 23.358,14.244 C23.511,14.276 23.661,14.312 23.807,14.353 C23.880,14.373 23.952,14.394 24.023,14.417 C24.478,14.541 24.889,14.700 25.242,14.902 C25.585,13.574 25.242,12.684 24.473,11.830 C23.630,10.894 22.174,10.475 20.283,10.475 L13.634,10.475 C13.301,10.475 13.010,10.710 12.950,11.055 L9.956,26.019 C9.909,26.273 10.101,26.505 10.351,26.505 L13.858,26.505 L14.894,20.311 L13.033,14.627 Z" id="Shape" fill="#113984"></path>
            <path d="M25.244,14.905 C25.243,14.907 25.243,14.908 25.242,14.909 C25.134,15.468 24.959,16.079 24.707,16.729 C23.583,19.902 21.225,21.187 18.018,21.187 L16.083,21.187 C15.751,21.188 15.459,21.424 15.400,21.767 L14.163,28.929 C14.128,29.132 14.284,29.317 14.486,29.317 L17.487,29.317 C17.770,29.317 18.020,29.117 18.084,28.844 L18.119,28.710 L18.714,25.559 L18.756,25.393 C18.820,25.119 19.070,24.919 19.353,24.919 L19.787,24.919 C22.532,24.919 24.566,23.809 25.542,21.092 C25.947,19.960 26.096,18.657 25.786,17.607 C25.671,17.243 25.488,16.918 25.244,16.635 C25.244,16.634 25.243,16.634 25.243,16.633 C25.243,16.049 25.243,15.479 25.244,14.905 Z" id="Shape" fill="#172C70"></path>
        </g>
    </g>
</svg>