<?xml version="1.0" encoding="UTF-8"?>
<svg width="100px" height="30px" viewBox="0 0 100 30" version="1.1" xmlns="http://www.w3.org/2000/svg" xmlns:xlink="http://www.w3.org/1999/xlink">
    <g id="icon" stroke="none" stroke-width="1" fill="none" fill-rule="evenodd">
        <g id="paypal" transform="translate(5.000000, 5.000000)" fill-rule="nonzero">
            <path d="M78.657,5.928 C78.665,5.684 78.633,5.440 78.557,5.207 C78.086,3.797 76.644,3 74.648,3 L66.428,3 C66.146,3 65.897,3.198 65.832,3.473 L62.028,21.626 C61.983,21.813 62.083,22.000 62.265,22.051 C62.290,22.059 62.318,22.062 62.346,22.062 L66.149,22.062 C66.430,22.062 66.680,21.863 66.744,21.591 L67.640,16.873 C67.703,16.601 67.952,16.403 68.233,16.401 L70.290,16.401 C74.353,16.401 77.001,14.414 77.662,10.610 C77.970,8.891 77.723,7.547 78.657,5.928 Z" id="Shape" fill="#009BE1"></path>
            <path d="M63.033,10.627 C63.092,10.284 63.382,10.049 63.715,10.049 L71.240,10.049 C71.837,10.049 72.392,10.084 72.898,10.158 C73.053,10.183 73.206,10.211 73.358,10.244 C73.511,10.276 73.661,10.312 73.807,10.353 C73.880,10.373 73.952,10.394 74.023,10.417 C74.478,10.541 74.889,10.700 75.242,10.902 C75.585,9.574 75.242,8.684 74.473,7.830 C73.630,6.894 72.174,6.475 70.283,6.475 L63.634,6.475 C63.301,6.475 63.010,6.710 62.950,7.055 L59.956,22.019 C59.909,22.273 60.101,22.505 60.351,22.505 L63.858,22.505 L64.894,16.311 L63.033,10.627 Z" id="Shape" fill="#113984"></path>
            <path d="M75.244,10.905 C75.243,10.907 75.243,10.908 75.242,10.909 C75.134,11.468 74.959,12.079 74.707,12.729 C73.583,15.902 71.225,17.187 68.018,17.187 L66.083,17.187 C65.751,17.188 65.459,17.424 65.400,17.767 L64.163,24.929 C64.128,25.132 64.284,25.317 64.486,25.317 L67.487,25.317 C67.770,25.317 68.020,25.117 68.084,24.844 L68.119,24.710 L68.714,21.559 L68.756,21.393 C68.820,21.119 69.070,20.919 69.353,20.919 L69.787,20.919 C72.532,20.919 74.566,19.809 75.542,17.092 C75.947,15.960 76.096,14.657 75.786,13.607 C75.671,13.243 75.488,12.918 75.244,12.635 C75.244,12.634 75.243,12.634 75.243,12.633 C75.243,12.049 75.243,11.479 75.244,10.905 Z" id="Shape" fill="#172C70"></path>
        </g>
    </g>
</svg>