<svg xmlns="http://www.w3.org/2000/svg" width="60" height="40" viewBox="0 0 60 40">
  <rect width="60" height="40" rx="4" fill="#ffffff"/>
  <path d="M23.42,26.9H20.05l2.11-13.09h3.37L23.42,26.9z" fill="#172B85"/>
  <path d="M35.95,14.09c-0.67-0.25-1.71-0.53-3.02-0.53c-3.34,0-5.69,1.69-5.71,4.1c-0.02,1.79,1.68,2.78,2.96,3.38c1.31,0.61,1.75,1,1.75,1.55c-0.01,0.84-1.05,1.22-2.02,1.22c-1.35,0-2.07-0.19-3.17-0.65l-0.43-0.2l-0.47,2.77c0.79,0.34,2.24,0.64,3.75,0.66c3.53,0,5.83-1.67,5.86-4.25c0.01-1.41-0.89-2.49-2.83-3.38c-1.18-0.57-1.9-0.95-1.9-1.53c0-0.51,0.61-1.06,1.92-1.06c1.09-0.02,1.89,0.22,2.5,0.47l0.3,0.14L35.95,14.09z" fill="#172B85"/>
  <path d="M41.79,21.89c0.28-0.74,1.39-3.61,1.39-3.61c-0.02,0.03,0.29-0.75,0.46-1.23l0.24,1.09c0,0,0.66,3.05,0.8,3.75H41.79z M46.48,13.81h-2.57c-0.8,0-1.4,0.22-1.75,1.02l-4.96,11.27h3.51c0,0,0.57-1.52,0.7-1.85c0.38,0,3.78,0.01,4.27,0.01c0.1,0.43,0.41,1.84,0.41,1.84h3.1L46.48,13.81z" fill="#172B85"/>
  <path d="M18.13,13.81l-3.27,8.36l-0.35-1.69c-0.61-1.96-2.49-4.08-4.6-5.14l2.98,10.56h3.52l5.23-12.08H18.13z" fill="#172B85"/>
  <path d="M12.62,13.81H7.02l-0.05,0.29c4.36,1.06,7.26,3.62,8.45,6.69l-1.22-5.88C13.98,14.07,13.37,13.83,12.62,13.81z" fill="#F9A51A"/>
</svg>