<svg xmlns="http://www.w3.org/2000/svg" width="60" height="40" viewBox="0 0 60 40">
  <rect width="60" height="40" rx="4" fill="#ffffff"/>
  <path d="M26.11,16.33l-4.35,10.49h-2.83l-2.13-8.2c-0.13-0.51-0.24-0.7-0.64-0.91c-0.64-0.35-1.69-0.68-2.62-0.88l0.06-0.5h4.52c0.58,0,1.1,0.38,1.22,1.04l1.13,5.93l2.77-6.97H26.11z M40.49,23.53c0.01-2.7-3.74-2.85-3.72-4.06c0.01-0.37,0.36-0.76,1.12-0.86c0.38-0.05,1.42-0.09,2.6,0.45l0.46-2.16c-0.63-0.23-1.45-0.45-2.46-0.45c-2.61,0-4.44,1.38-4.46,3.36c-0.01,1.47,1.31,2.28,2.3,2.77c1.02,0.5,1.37,0.82,1.36,1.26c-0.01,0.68-0.82,0.98-1.57,0.99c-1.32,0.02-2.08-0.36-2.69-0.64l-0.48,2.22c0.61,0.28,1.74,0.52,2.92,0.53C38.7,26.95,40.48,25.58,40.49,23.53 M47.9,26.82h2.49l-2.17-10.49h-2.3c-0.52,0-0.96,0.3-1.15,0.76l-4.06,9.73h2.83l0.56-1.55h3.47L47.9,26.82z M44.58,23.14l1.43-3.94l0.82,3.94H44.58z M33.56,16.33l-2.22,10.49h-2.69l2.22-10.49H33.56z" fill="#0066b2"/>
  <path d="M26.11,16.33l-4.35,10.49h-2.83l-2.13-8.2c-0.13-0.51-0.24-0.7-0.64-0.91c-0.64-0.35-1.69-0.68-2.62-0.88l0.06-0.5h4.52c0.58,0,1.1,0.38,1.22,1.04l1.13,5.93l2.77-6.97H26.11z" fill="#0066b2"/>
</svg>