<?xml version="1.0" encoding="UTF-8"?>
<svg width="80px" height="30px" viewBox="0 0 80 30" version="1.1" xmlns="http://www.w3.org/2000/svg" xmlns:xlink="http://www.w3.org/1999/xlink">
    <g id="icon" stroke="none" stroke-width="1" fill="none" fill-rule="evenodd">
        <path d="M12,22.8 L15,13.2 L18,22.8 L12,22.8 Z M33.6,22.8 L30.96,21.744 C30.48,21.552 30.12,21.36 30.12,20.88 C30.12,20.496 30.48,20.112 31.2,20.112 C31.824,20.112 32.352,20.304 32.736,20.496 L33.12,20.688 L33.696,18.384 C33.216,18.096 32.352,17.808 31.296,17.808 C28.992,17.808 27.36,19.056 27.36,20.976 C27.36,22.416 28.56,23.184 29.424,23.664 C30.336,24.144 30.624,24.48 30.624,24.912 C30.624,25.584 29.808,25.872 29.04,25.872 C27.984,25.872 27.408,25.68 26.544,25.296 L26.064,25.104 L25.488,27.504 C26.064,27.792 27.216,28.08 28.416,28.08 C30.864,28.08 32.448,26.832 32.448,24.816 C32.448,23.76 31.872,22.944 30.48,22.224 C29.616,21.744 29.136,21.456 29.136,21.024 C29.136,20.64 29.52,20.256 30.336,20.256 C31.008,20.256 31.536,20.4 31.92,20.544 L32.208,20.64 L33.6,22.8 Z M39.6,13.2 L37.632,13.2 C36.864,13.2 36.336,13.392 36.048,14.16 L31.2,22.8 L33.936,22.8 C33.936,22.8 34.464,21.408 34.56,21.168 L38.496,21.168 C38.592,21.504 38.88,22.8 38.88,22.8 L41.28,22.8 L39.6,13.2 Z M35.232,19.056 C35.424,18.576 36.288,16.176 36.288,16.176 C36.288,16.224 36.48,15.744 36.576,15.456 L36.768,16.08 C36.768,16.08 37.344,18.624 37.44,19.056 L35.232,19.056 Z M22.272,13.2 L22.272,21.168 L19.152,13.2 L16.8,13.2 C16.032,13.2 15.408,13.488 15.12,14.16 L10.8,22.8 L13.536,22.8 L14.16,21.168 L19.248,21.168 L19.632,22.8 L22.08,22.8 L22.272,13.2 Z" id="visa" fill="#1A1F71"></path>
    </g>
</svg>