<?xml version="1.0" encoding="UTF-8"?>
<svg width="800px" height="800px" viewBox="0 0 800 800" version="1.1" xmlns="http://www.w3.org/2000/svg" xmlns:xlink="http://www.w3.org/1999/xlink">
    <defs>
        <linearGradient x1="0%" y1="0%" x2="100%" y2="100%" id="gradient">
            <stop stop-color="#ffffff" stop-opacity="0.05" offset="0%"></stop>
            <stop stop-color="#ffffff" stop-opacity="0.1" offset="100%"></stop>
        </linearGradient>
    </defs>
    <g stroke="none" fill="none">
        <!-- Circles pattern -->
        <circle cx="0" cy="0" r="40" fill="url(#gradient)" opacity="0.2"></circle>
        <circle cx="200" cy="0" r="40" fill="url(#gradient)" opacity="0.2"></circle>
        <circle cx="400" cy="0" r="40" fill="url(#gradient)" opacity="0.2"></circle>
        <circle cx="600" cy="0" r="40" fill="url(#gradient)" opacity="0.2"></circle>
        <circle cx="800" cy="0" r="40" fill="url(#gradient)" opacity="0.2"></circle>
        
        <circle cx="100" cy="100" r="40" fill="url(#gradient)" opacity="0.2"></circle>
        <circle cx="300" cy="100" r="40" fill="url(#gradient)" opacity="0.2"></circle>
        <circle cx="500" cy="100" r="40" fill="url(#gradient)" opacity="0.2"></circle>
        <circle cx="700" cy="100" r="40" fill="url(#gradient)" opacity="0.2"></circle>
        
        <circle cx="0" cy="200" r="40" fill="url(#gradient)" opacity="0.2"></circle>
        <circle cx="200" cy="200" r="40" fill="url(#gradient)" opacity="0.2"></circle>
        <circle cx="400" cy="200" r="40" fill="url(#gradient)" opacity="0.2"></circle>
        <circle cx="600" cy="200" r="40" fill="url(#gradient)" opacity="0.2"></circle>
        <circle cx="800" cy="200" r="40" fill="url(#gradient)" opacity="0.2"></circle>
        
        <circle cx="100" cy="300" r="40" fill="url(#gradient)" opacity="0.2"></circle>
        <circle cx="300" cy="300" r="40" fill="url(#gradient)" opacity="0.2"></circle>
        <circle cx="500" cy="300" r="40" fill="url(#gradient)" opacity="0.2"></circle>
        <circle cx="700" cy="300" r="40" fill="url(#gradient)" opacity="0.2"></circle>
        
        <circle cx="0" cy="400" r="40" fill="url(#gradient)" opacity="0.2"></circle>
        <circle cx="200" cy="400" r="40" fill="url(#gradient)" opacity="0.2"></circle>
        <circle cx="400" cy="400" r="40" fill="url(#gradient)" opacity="0.2"></circle>
        <circle cx="600" cy="400" r="40" fill="url(#gradient)" opacity="0.2"></circle>
        <circle cx="800" cy="400" r="40" fill="url(#gradient)" opacity="0.2"></circle>
        
        <circle cx="100" cy="500" r="40" fill="url(#gradient)" opacity="0.2"></circle>
        <circle cx="300" cy="500" r="40" fill="url(#gradient)" opacity="0.2"></circle>
        <circle cx="500" cy="500" r="40" fill="url(#gradient)" opacity="0.2"></circle>
        <circle cx="700" cy="500" r="40" fill="url(#gradient)" opacity="0.2"></circle>
        
        <circle cx="0" cy="600" r="40" fill="url(#gradient)" opacity="0.2"></circle>
        <circle cx="200" cy="600" r="40" fill="url(#gradient)" opacity="0.2"></circle>
        <circle cx="400" cy="600" r="40" fill="url(#gradient)" opacity="0.2"></circle>
        <circle cx="600" cy="600" r="40" fill="url(#gradient)" opacity="0.2"></circle>
        <circle cx="800" cy="600" r="40" fill="url(#gradient)" opacity="0.2"></circle>
        
        <circle cx="100" cy="700" r="40" fill="url(#gradient)" opacity="0.2"></circle>
        <circle cx="300" cy="700" r="40" fill="url(#gradient)" opacity="0.2"></circle>
        <circle cx="500" cy="700" r="40" fill="url(#gradient)" opacity="0.2"></circle>
        <circle cx="700" cy="700" r="40" fill="url(#gradient)" opacity="0.2"></circle>
        
        <circle cx="0" cy="800" r="40" fill="url(#gradient)" opacity="0.2"></circle>
        <circle cx="200" cy="800" r="40" fill="url(#gradient)" opacity="0.2"></circle>
        <circle cx="400" cy="800" r="40" fill="url(#gradient)" opacity="0.2"></circle>
        <circle cx="600" cy="800" r="40" fill="url(#gradient)" opacity="0.2"></circle>
        <circle cx="800" cy="800" r="40" fill="url(#gradient)" opacity="0.2"></circle>
        
        <!-- Diagonal lines pattern -->
        <line x1="0" y1="0" x2="800" y2="800" stroke="url(#gradient)" stroke-width="1" opacity="0.1"></line>
        <line x1="100" y1="0" x2="900" y2="800" stroke="url(#gradient)" stroke-width="1" opacity="0.1"></line>
        <line x1="200" y1="0" x2="1000" y2="800" stroke="url(#gradient)" stroke-width="1" opacity="0.1"></line>
        <line x1="300" y1="0" x2="1100" y2="800" stroke="url(#gradient)" stroke-width="1" opacity="0.1"></line>
        <line x1="-100" y1="0" x2="700" y2="800" stroke="url(#gradient)" stroke-width="1" opacity="0.1"></line>
        <line x1="-200" y1="0" x2="600" y2="800" stroke="url(#gradient)" stroke-width="1" opacity="0.1"></line>
        <line x1="-300" y1="0" x2="500" y2="800" stroke="url(#gradient)" stroke-width="1" opacity="0.1"></line>
    </g>
</svg>