<svg xmlns="http://www.w3.org/2000/svg" width="80" height="80" viewBox="0 0 80 80" fill="none">
  <rect width="80" height="80" rx="6" fill="#E5E7EB"/>
  <path d="M56.6667 23.3333H23.3333C22.4167 23.3333 21.6667 24.0833 21.6667 25V55C21.6667 55.9167 22.4167 56.6667 23.3333 56.6667H56.6667C57.5833 56.6667 58.3333 55.9167 58.3333 55V25C58.3333 24.0833 57.5833 23.3333 56.6667 23.3333ZM25 25H55V41.6667H25V25ZM25 55V45H55V55H25Z" fill="#9CA3AF"/>
  <path d="M31.6667 50H45C45.9167 50 46.6667 49.25 46.6667 48.3333C46.6667 47.4167 45.9167 46.6667 45 46.6667H31.6667C30.75 46.6667 30 47.4167 30 48.3333C30 49.25 30.75 50 31.6667 50Z" fill="#9CA3AF"/>
  <path d="M48.3333 50H50C50.9167 50 51.6667 49.25 51.6667 48.3333C51.6667 47.4167 50.9167 46.6667 50 46.6667H48.3333C47.4167 46.6667 46.6667 47.4167 46.6667 48.3333C46.6667 49.25 47.4167 50 48.3333 50Z" fill="#9CA3AF"/>
  <path d="M40 35C44.6024 35 48.3333 31.269 48.3333 26.6667C48.3333 22.0643 44.6024 18.3333 40 18.3333C35.3976 18.3333 31.6667 22.0643 31.6667 26.6667C31.6667 31.269 35.3976 35 40 35Z" fill="#9CA3AF"/>
</svg>