<?xml version="1.0" encoding="UTF-8" standalone="no"?>
<svg width="300" height="120" viewBox="0 0 300 120" xmlns="http://www.w3.org/2000/svg">
  <g stroke="black" stroke-width="1.5" fill="none">
    <!-- Car side view outline -->
    <path d="M 50,80 
             L 70,40 
             L 130,40 
             L 180,40 
             C 210,40 230,50 240,80 
             L 50,80 
             Z" />
    
    <!-- Windows -->
    <path d="M 90,40 L 90,60 L 130,60 L 170,60 L 170,40" />
    <line x1="130" y1="40" x2="130" y2="60" />
    
    <!-- Wheels -->
    <circle cx="80" cy="80" r="20" />
    <circle cx="210" cy="80" r="20" />
    
    <!-- Wheel center -->
    <circle cx="80" cy="80" r="5" />
    <circle cx="210" cy="80" r="5" />
    
    <!-- Door handle -->
    <line x1="110" y1="65" x2="120" y2="65" />
    <line x1="150" y1="65" x2="160" y2="65" />
    
    <!-- Bumpers -->
    <path d="M 50,80 L 40,90 L 50,100" />
    <path d="M 240,80 L 250,90 L 240,100" />
    
    <!-- Ground line -->
    <line x1="30" y1="100" x2="270" y2="100" />
  </g>
</svg>