<?xml version="1.0" encoding="UTF-8" standalone="no"?>
<svg width="300" height="120" viewBox="0 0 300 120" xmlns="http://www.w3.org/2000/svg">
  <g stroke="black" stroke-width="1.5" fill="none">
    <!-- Car opposite side view outline - mirror of side view -->
    <path d="M 250,80 
             L 230,40 
             L 170,40 
             L 120,40 
             C 90,40 70,50 60,80 
             L 250,80 
             Z" />
    
    <!-- Windows -->
    <path d="M 210,40 L 210,60 L 170,60 L 130,60 L 130,40" />
    <line x1="170" y1="40" x2="170" y2="60" />
    
    <!-- Wheels -->
    <circle cx="90" cy="80" r="20" />
    <circle cx="220" cy="80" r="20" />
    
    <!-- Wheel center -->
    <circle cx="90" cy="80" r="5" />
    <circle cx="220" cy="80" r="5" />
    
    <!-- Door handle -->
    <line x1="190" y1="65" x2="180" y2="65" />
    <line x1="150" y1="65" x2="140" y2="65" />
    
    <!-- Bumpers -->
    <path d="M 250,80 L 260,90 L 250,100" />
    <path d="M 60,80 L 50,90 L 60,100" />
    
    <!-- Ground line -->
    <line x1="30" y1="100" x2="270" y2="100" />
  </g>
</svg>