<?xml version="1.0" encoding="UTF-8" standalone="no"?>
<svg width="300" height="200" viewBox="0 0 300 200" xmlns="http://www.w3.org/2000/svg">
  <g stroke="black" stroke-width="1.5" fill="none">
    <!-- Car top view outline -->
    <path d="M 100,30 
             C 120,20 180,20 200,30
             C 240,50 260,100 260,120
             C 260,140 240,180 200,190
             C 180,195 120,195 100,190
             C 60,180 40,140 40,120
             C 40,100 60,50 100,30
             Z" />
    
    <!-- Windshield -->
    <path d="M 100,50 
             C 120,40 180,40 200,50
             C 190,60 110,60 100,50
             Z" />
    
    <!-- Rear window -->
    <path d="M 100,170 
             C 120,180 180,180 200,170
             C 190,160 110,160 100,170
             Z" />
    
    <!-- Doors -->
    <path d="M 80,60 L 80,140" />
    <path d="M 220,60 L 220,140" />
    <line x1="80" y1="100" x2="90" y2="100" />
    <line x1="220" y1="100" x2="210" y2="100" />
    
    <!-- Roof cross lines -->
    <line x1="120" y1="80" x2="180" y2="80" />
    <line x1="120" y1="120" x2="180" y2="120" />
    
    <!-- Hood and trunk lines -->
    <line x1="70" y1="60" x2="100" y2="40" />
    <line x1="230" y1="60" x2="200" y2="40" />
    <line x1="70" y1="140" x2="100" y2="160" />
    <line x1="230" y1="140" x2="200" y2="160" />
  </g>
</svg>